<svg xmlns="http://www.w3.org/2000/svg" width="48" height="48" id="pinduoduo"><path d="M27.41 22.29h1.51l-.57-1.14h-.9c0-.57.06-1.12.09-1.5h1.11l-.2-1.14h-1.57l1.27-1.09-1.27-1.08-1 2.17h-1.21l.54-1.37-2-.8.79 2.17h-.82l-.46.36.46.78h.52l-.05 1.63-.89.11.28-.81-1 .15v-1.25l.78-.76v-.51h-.62l-.58-1.87-.77 1.81-1 .2 1 1.17v1.33l-1.16.15.31 1.6.94-.54V24h-.62l-.34.29 1.78 1 .34-3.55h.58l.33.59h.64l-.08 3a3.28 3.28 0 0 0 1.2-2.33v-.66h1.43c0 1.07 0 2.22.06 3.11 0 0 1.18-1.21 1.13-2.08.01-.32.01-.69.02-1.08zm-1.53-1.14h-1c0-.64.1-1.22.13-1.53h1.28v1.5zM14.34 7.48v12.33l9-6.17zm4.8 5.37v2.6h-3v-2.6l-.38.2-.52-.65.26-.19a4.07 4.07 0 0 1 1.56-.66s.2.55.59.55.58-.55.58-.55a4.07 4.07 0 0 1 1.56.66l.26.19-.52.65zm-1.53 13.59a1 1 0 1 0 1 1 1 1 0 0 0-1-1zm0 1.8a.8.8 0 1 1 .8-.8.8.8 0 0 1-.8.8z"></path><path d="M14.34 21.43v12.34l9-6.17zm5.07 7.66h-3.54a.31.31 0 0 1-.32-.31v-2.49a.31.31 0 0 1 .32-.31h.7l.18-.35a.44.44 0 0 1 .38-.23h1a.41.41 0 0 1 .37.23l.18.35h.76a.31.31 0 0 1 .31.31v2.49a.31.31 0 0 1-.34.31zm-5.7-21.61-9 6.16 9 6.17zm-1.11 8a10 10 0 0 1-1.64.12 10 10 0 0 1-1.65-.12.12.12 0 0 1-.07-.2c1-1.25.91-1.88.91-1.88v-.59h-.21V12h.2v-.6h.24a.75.75 0 0 0 0 .31c0 .24.35.31.58.31s.54-.07.57-.31a.75.75 0 0 0 0-.31h.24v.6H12v.81h-.2v.59s-.07.63.91 1.88a.12.12 0 0 1-.11.22zm11.1 25.04V28.19l-9 6.17zm-3.39-8.62v-.1a.23.23 0 0 1 .23-.23.23.23 0 0 1 .23.23v.1a2.22 2.22 0 0 1 2 2.21h-2v1.09a.76.76 0 0 1-.77.8h-.09a.77.77 0 0 1-.78-.77.2.2 0 0 1 .2-.2.2.2 0 0 1 .21.2.37.37 0 0 0 .37.37H20a.38.38 0 0 0 .37-.37v-1.12h-2a2.22 2.22 0 0 1 1.94-2.21zm-6.6 1.77V21.33l-9 6.17zm-1.37-8.41s.77 0 .77.72a2 2 0 0 1-.45 1.23v2h-.32v-2h-.27l-.3.58s-.31 1.38-1.22 1.38c-1.43 0-1.78-.42-1.78-.42a15 15 0 0 1 2-.89zm-7.63 1.49 9-6.17-9-6.17zm2.76-7.4c0-.37.36-.61.62-.74a.64.64 0 0 1 .54 0c.26.13.62.37.62.74 0 0 1.05.15 1.05 1.8a1.49 1.49 0 0 1-.49 1.14l-1.45-.05-1.45.05a1.49 1.49 0 0 1-.49-1.14c0-1.65 1.05-1.8 1.05-1.8zM24.3 40.52l9-6.16-9-6.17zm1.54-7.91 1.08-.8v-.1a.14.14 0 0 1 .14-.14.13.13 0 0 1 .13.14v.1l1.09.8a.1.1 0 0 1-.06.18H25.9a.1.1 0 0 1-.06-.18zm0 .69a.23.23 0 0 1 .23-.23h2a.23.23 0 0 1 .24.23v2.38a.23.23 0 0 1-.24.23H26a.23.23 0 0 1-.23-.23z"></path><path d="M27.19 31.81v-.1a.13.13 0 0 0-.13-.14.14.14 0 0 0-.14.14v.1l.14-.09Z"></path><path d="M27.06 32.07a.13.13 0 0 0 .13-.13v-.13l-.13-.09-.14.09v.13a.13.13 0 0 0 .14.13zm6.6-12.26V7.48l-9 6.16zM30.4 11.4H32a5 5 0 0 1-.15 1.87 1.45 1.45 0 0 1-1.25 1v1h.49a.44.44 0 0 1 .33.14.15.15 0 0 1-.1.26h-1.81a.15.15 0 0 1-.11-.26.47.47 0 0 1 .33-.14h.49v-1a1.43 1.43 0 0 1-1.24-1 4.73 4.73 0 0 1-.15-1.87zm3.26 22.37V21.43l-9 6.17zm-2.49-4.47a.48.48 0 0 1-.47.48H30a.48.48 0 0 1-.48-.48v-.21h1.7zm-1.7-3.72a.48.48 0 0 1 .53-.48h.75a.48.48 0 0 1 .47.48v.21h-1.7zm.85.4a1.46 1.46 0 1 1-1.46 1.46A1.46 1.46 0 0 1 30.32 26zm3.97-18.5v12.33l9-6.17zM37.65 11s.15.77-.81.77c0 .01-.13-.77.81-.77zm-2.18-.17c1.22.14 1.12.94 1.12.94-1.38.03-1.12-.93-1.12-.93zm1.29 4.9a1.9 1.9 0 1 1 1.9-1.89 1.89 1.89 0 0 1-1.9 1.9zm-2.47 17.94 9-6.17-9-6.17zm3.59-8.77a.17.17 0 0 1 .16-.17.17.17 0 0 1 .17.17v.51a.16.16 0 0 1-.17.17.16.16 0 0 1-.16-.17zm-1.29 0a.17.17 0 1 1 .34 0v.51a.17.17 0 1 1-.34 0zm-1.28 0a.17.17 0 0 1 .16-.17.17.17 0 0 1 .17.17v.51a.16.16 0 0 1-.17.17.16.16 0 0 1-.16-.17zM35 26.2a.22.22 0 0 1 .22-.22h3.21a.22.22 0 0 1 .23.22v.59a.89.89 0 0 1 .89.9.91.91 0 0 1-.89.9v.58a.22.22 0 0 1-.23.22h-3.21a.22.22 0 0 1-.22-.22zm8.29-11.79-9 6.17 9 6.17zm-1.36 5.92a1.78 1.78 0 0 1-.26.47s.26.31.26.47v.39a.13.13 0 0 1-.22.09l-.45-.4a.5.5 0 0 0-.68 0 3.41 3.41 0 0 1-.72.57v.42a.36.36 0 0 1-.63.24l-.29-.34h-.21a1.9 1.9 0 0 1-1.86-1.35.49.49 0 0 1 0-.24 1.89 1.89 0 0 1 1.86-1.36h.21l.29-.34a.36.36 0 0 1 .63.23v.42a3.78 3.78 0 0 1 .72.58.49.49 0 0 0 .68 0l.45-.4a.13.13 0 0 1 .22.1z"></path></svg>